<svg preserveAspectRatio="none" width="100%" height="100%" overflow="visible" style="display: block;" viewBox="0 0 269.988 204.641" fill="none" xmlns="http://www.w3.org/2000/svg">
<g id="c">
<path id="Vector" d="M37.4085 103.812C33.276 106.413 28.5232 94.7662 15.4855 102.961C7.03049 108.284 8.61143 119.971 13.2142 127.285C16.0558 131.798 20.4484 134.98 25.5815 136.361C29.5939 137.381 34.0165 137.361 37.5786 135.12C41.651 132.559 44.4527 126.715 45.5233 122.222C45.6134 121.812 45.6734 121.332 46.1137 121.052C47.0042 120.491 48.0948 121.672 48.5351 122.363C49.0954 123.253 49.1555 123.923 49.1354 125.004C49.0954 131.148 45.1631 136.461 40.1401 139.623C39.4397 140.063 38.8093 140.463 38.1289 140.803C22.6497 148.498 13.4643 143.625 3.80859 130.537L3.28828 129.707C-1.75471 121.692 -0.914214 112.026 5.23943 104.882C7.84097 101.83 10.9528 99.1588 14.3248 97.0375C17.1865 95.2364 19.758 94.2458 23 93.6255C29.2637 92.4348 29.4538 90.9039 33.8464 96.4772C35.0371 97.948 36.1678 99.4589 37.2084 101.11C37.6086 101.75 38.4891 103.141 37.4085 103.822V103.812Z" fill="var(--fill-0, white)"/>
<path id="Vector_2" d="M100.666 116.139C100.376 116.219 100.166 116.289 99.9255 116.279C93.912 117.64 91.2104 116.709 86.4476 113.007C83.836 111.026 75.7412 103.922 72.9596 103.792C72.3192 103.741 71.6988 103.772 71.0484 103.962C68.0166 104.842 69.1873 109.125 69.8177 111.286L70.4481 113.447C71.2085 116.039 72.1491 118.19 75.5011 118.16C76.7418 118.11 78.8631 117.88 79.3233 119.471C79.8236 121.202 75.8113 123.003 74.5205 123.373C73.2197 123.753 71.959 123.963 70.6582 124.344C68.7871 124.894 66.876 125.604 64.9348 126.175C63.3439 126.635 59.2414 127.836 58.581 125.604C57.8406 123.083 64.3845 123.523 63.494 115.879C63.1538 112.847 62.5634 109.735 61.6829 106.703C61.2026 105.042 60.6423 103.411 60.0919 101.77C59.3415 99.479 58.6711 97.1776 58.0007 94.8662L57.2403 92.2747C56.3797 89.3129 55.089 85.1605 51.747 84.1699C50.6363 83.8697 47.4945 83.5295 47.1343 82.3088C46.4839 80.0775 53.6681 77.8962 55.9095 77.2458L58.501 76.4853C67.7265 73.7937 81.7748 70.1616 85.2468 82.0586C86.5976 86.6714 85.1368 91.3241 81.9549 94.9163C81.1144 95.7868 80.1638 96.5372 79.4134 97.4578C79.0632 97.868 78.8431 98.1682 79.0031 98.7485C79.5735 100.7 84.1162 103.131 85.8172 104.122C89.9196 106.373 93.7919 108.915 98.2746 110.345C99.8955 110.806 102.927 111.806 103.448 113.607C103.868 115.048 101.677 115.849 100.666 116.139ZM65.315 79.9774L64.9548 80.0775C60.9124 81.2582 62.9436 89.8232 63.7641 92.6349C64.6246 95.5867 66.0655 100.259 70.1079 99.0787C71.0484 98.8086 71.919 98.3183 72.7895 97.828C78.0426 94.6561 77.7124 91.6243 76.1515 86.2811C74.6406 81.0881 70.378 79.357 65.315 79.9774Z" fill="var(--fill-0, white)"/>
<path id="Vector_3" d="M142.341 112.747C139.879 113.337 137.248 113.407 134.546 113.477C130.644 113.577 126.731 113.607 122.829 113.717C121.328 113.757 119.747 113.797 118.256 114.068C116.465 114.338 114.664 114.688 112.793 114.738C110.162 114.808 107.52 114.428 106.099 111.836C105.939 111.616 105.859 111.396 105.849 111.096C105.829 110.345 108.741 109.595 109.411 109.275C110.152 108.804 110.812 108.184 111.392 107.494C114.004 104.042 113.984 97.6579 113.874 93.4554L113.814 91.054C113.664 85.4206 113.283 73.8638 112.573 72.523C112.183 71.7825 111.943 71.5624 111.182 71.2122C109.811 70.5718 105.879 69.7013 105.829 67.8202C105.829 67.5901 105.889 67.2899 106.039 67.0597C106.97 65.2287 115.305 65.0085 117.326 64.9585C120.108 64.8885 122.809 64.9585 125.591 65.1186C127.622 65.2887 129.653 65.3087 131.684 65.2587C138.068 65.0886 143.701 65.0185 143.912 73.0533C143.952 74.4041 143.641 77.1957 141.84 77.2458C141.17 77.2658 140.48 76.8355 140.009 76.3953C135.627 72.7531 136.297 69.5812 129.523 69.161C128.773 69.111 128.022 69.131 127.192 69.151C123.139 69.261 121.508 70.1316 121.248 74.4141C121.138 75.995 121.108 77.646 121.148 79.227C121.228 82.0786 121.608 88.0822 125.591 87.9721C125.821 87.9721 125.971 87.9721 126.191 87.8821C129.253 87.3518 131.244 85.7208 132.065 82.619C132.275 81.9386 132.325 81.1881 132.605 80.4277C132.745 79.9774 133.025 79.367 133.626 79.347C135.056 79.307 135.447 82.759 135.627 83.7997C136.097 87.2417 137.088 90.5937 137.178 94.0557C137.208 95.2565 136.847 98.4984 135.196 98.5384C133.766 98.5784 131.674 93.3753 130.374 92.3547C129.303 91.4842 127.712 91.2241 126.291 91.2641C123.66 91.3341 122.189 92.4248 121.809 95.0663C121.498 97.6279 121.118 100.339 121.188 102.901C121.278 106.433 122.469 108.504 126.091 109.305C128.733 109.915 131.524 110.215 134.306 110.135C137.688 110.045 140.37 109.375 141.48 105.733C142.031 103.912 143.261 99.2988 145.593 99.2388C146.873 99.2088 147.003 104.382 147.033 105.282C147.134 108.965 146.233 111.836 142.351 112.767L142.341 112.747ZM136.137 63.3175C135.687 63.3275 135.236 63.3375 134.786 63.2775C131.844 62.9073 123.71 56.5135 120.128 54.7224C118.226 53.7919 115.325 51.9908 115.255 49.5894C115.215 48.0085 115.615 46.0473 117.486 45.9973C118.086 45.9773 118.617 46.1173 119.147 46.2574C122.029 47.0779 121.298 47.8484 123.289 49.3793C125.591 51.2003 137.338 60.5759 137.388 62.6071C137.408 63.2875 136.577 63.3075 136.127 63.3175H136.137Z" fill="var(--fill-0, white)"/>
<path id="Vector_4" d="M219.196 85.0204L218.836 84.9203C216.375 84.2299 212.592 97.3677 211.472 101.34L210.411 105.102C208.82 110.746 206.239 120.471 207.9 122.583C208.76 123.683 209.971 124.654 209.54 126.165C208.83 128.696 202.066 126.085 200.325 125.905C199.034 125.775 197.703 125.795 196.473 125.444C194.662 124.934 193.591 123.773 192.801 122.142C192.67 121.792 192.46 121.422 192.58 120.992C192.741 120.411 194.722 120.031 195.262 119.791C195.782 119.621 196.263 119.291 196.743 118.96C198.954 117.48 199.995 114.888 200.765 112.447C201.826 109.235 202.887 106.023 204.027 102.831C205.018 100.149 206.078 97.4778 206.859 94.7361C207.079 93.9457 207.219 93.1952 207.129 92.3947C207.099 91.6843 206.709 89.463 205.908 89.2429C204.898 88.9527 203.337 91.174 202.746 91.8644C198.684 97.4277 195.182 103.471 190.669 108.674C189.519 109.985 188.488 111.416 187.587 112.957C186.007 115.789 184.466 120.972 180.203 119.771L179.913 119.691C175.811 118.46 176.031 116.019 176.451 112.317C176.571 110.786 176.851 109.235 176.901 107.684C177.151 101.28 176.461 94.8362 175.901 88.5225C175.801 87.4818 175.67 82.679 174.59 82.3788C173.649 82.1187 172.539 85.2305 172.348 85.8809C171.398 88.4224 170.397 90.8738 169.657 93.4754C168.776 96.5872 168.336 99.8192 167.986 102.991C167.586 106.073 166.875 109.155 167.726 112.206C167.956 113.047 168.326 113.938 168.086 114.808C167.476 116.979 162.613 115.689 160.662 115.138C158.931 114.648 151.146 112.066 151.816 109.675C152.607 106.853 158.68 109.425 161.822 101.03C162.353 99.6991 162.743 98.3283 163.153 96.8774L164.354 92.6149C165.254 89.433 166.315 86.2211 167.496 83.1193C168.246 81.2982 169.057 79.5071 169.617 77.546C170.327 75.0145 169.937 74.204 167.976 72.563C166.665 71.4123 164.944 69.7613 165.494 67.8002C165.965 66.1392 167.876 66.2893 169.237 66.4394C171.488 66.7596 173.719 67.1598 175.881 67.7702C177.982 68.3605 180.173 69.4512 181.424 71.3623C182.755 73.2934 182.434 77.7361 182.454 80.1575C182.454 82.1087 182.544 84.0098 182.605 85.9709C182.795 88.9127 183.555 104.192 186.227 104.942C187.668 105.352 190.169 101.21 190.849 100.159C193.681 96.197 196.193 91.9945 198.954 88.0122C202.366 83.1193 207.129 76.7355 213.923 78.6566C215.654 79.1469 217.195 80.0474 218.936 80.5377C220.307 80.928 221.688 80.998 223.069 81.3882C224.299 81.7384 224.689 83.0992 224.389 84.1799C223.799 86.2811 220.817 85.5107 219.156 85.0404L219.196 85.0204Z" fill="var(--fill-0, white)"/>
<path id="Vector_5" d="M244.251 150.959C241.89 150.039 239.698 148.588 237.437 147.107C234.175 144.956 230.953 142.745 227.691 140.603C226.441 139.773 225.12 138.912 223.739 138.272C222.108 137.471 220.437 136.731 218.866 135.7C216.665 134.26 214.724 132.438 215.034 129.497C215.034 129.227 215.094 128.996 215.254 128.746C215.664 128.116 218.486 129.167 219.216 129.287C220.097 129.327 220.987 129.197 221.858 128.956C225.97 127.616 229.612 122.373 231.924 118.86L233.245 116.849C236.346 112.146 242.64 102.441 242.82 100.94C242.92 100.109 242.86 99.7891 242.43 99.0687C241.67 97.7579 238.948 94.7962 239.979 93.2252C240.099 93.0351 240.329 92.825 240.579 92.7249C242.39 91.7544 249.344 96.3371 251.045 97.4578C253.366 98.9887 255.538 100.6 257.739 102.311C259.31 103.611 260.961 104.792 262.652 105.903C267.985 109.415 272.648 112.577 268.225 119.291C267.485 120.421 265.644 122.533 264.133 121.542C263.573 121.172 263.252 120.421 263.122 119.801C261.611 114.308 263.973 112.086 258.66 107.874C258.069 107.394 257.449 106.983 256.758 106.533C253.366 104.302 251.535 104.082 248.864 107.454C247.873 108.684 246.903 110.025 246.032 111.346C244.461 113.727 241.349 118.87 244.671 121.062C244.861 121.182 244.982 121.272 245.212 121.332C248.033 122.653 250.595 122.443 253.036 120.371C253.597 119.931 254.077 119.341 254.737 118.88C255.108 118.59 255.688 118.25 256.198 118.58C257.389 119.361 255.738 122.413 255.288 123.373C253.707 126.465 252.596 129.787 250.695 132.669C250.034 133.669 247.883 136.121 246.502 135.21C245.312 134.43 246.572 128.956 246.082 127.375C245.702 126.045 244.551 124.924 243.361 124.144C241.159 122.693 239.328 122.753 237.507 124.694C235.786 126.615 233.925 128.636 232.524 130.767C230.583 133.719 230.363 136.091 232.884 138.822C234.705 140.833 236.827 142.675 239.148 144.205C241.97 146.067 244.561 147.047 247.543 144.696C249.034 143.525 252.686 140.433 254.627 141.714C255.698 142.414 252.846 146.747 252.346 147.497C250.325 150.569 247.933 152.42 244.221 150.959H244.251Z" fill="var(--fill-0, white)"/>
<path id="Vector_6" d="M66.986 190.303C64.7847 190.303 65.7653 184.719 58.8312 184.719C54.3285 184.719 52.1272 189.552 52.1272 193.445C52.1272 195.846 53.0378 198.117 54.6687 199.868C55.9595 201.219 57.6505 202.27 59.5416 202.27C61.7029 202.27 64.1744 200.719 65.6652 199.258C65.7953 199.118 65.9354 198.958 66.1755 198.958C66.6458 198.958 66.7859 199.668 66.7859 200.039C66.7859 200.509 66.6458 200.779 66.3757 201.189C64.8848 203.521 62.1131 204.611 59.4416 204.611C59.0713 204.611 58.7311 204.611 58.3909 204.581C50.6463 203.801 48.305 199.738 47.7646 192.434V191.994C47.7646 187.731 50.4062 184.249 54.4686 182.998C56.1896 182.458 58.0207 182.188 59.8118 182.188C61.3327 182.188 62.5534 182.428 63.9342 182.968C66.6058 184.019 67.0461 183.479 67.3863 186.661C67.4863 187.501 67.5564 188.352 67.5564 189.232C67.5564 189.572 67.5564 190.313 66.976 190.313L66.986 190.303Z" fill="var(--fill-0, #FFEDB7)"/>
<path id="Vector_7" d="M89.4193 204.441C88.4387 204.441 87.5282 203.901 86.5476 203.901C86.1774 203.901 85.7672 203.931 85.3669 203.931C84.6265 203.931 83.776 203.461 83.776 202.61C83.776 201.629 84.8266 201.559 85.537 201.329C86.0773 201.129 86.2174 200.959 86.2174 200.379C86.2174 199.428 85.7471 198.177 85.3369 197.297C84.9667 196.456 83.9861 196.216 83.1056 196.216C82.6653 196.216 82.195 196.316 81.7148 196.316C81.2745 196.316 80.8342 196.286 80.394 196.286C79.8236 196.286 79.4834 196.356 79.0031 196.727C78.2227 197.337 77.002 198.788 77.002 199.808C77.002 201.059 78.9631 202.28 78.9631 203.361C78.9631 204.311 75.4811 204.411 74.7706 204.411C73.8601 204.411 71.0184 204.341 71.0184 203.02C71.0184 201.189 73.9602 201.429 75.0408 199.098C75.8913 197.267 76.0514 195.136 76.7618 193.245C77.1721 192.094 77.6123 190.943 77.9825 189.792C78.5229 188.232 79.6435 184.139 80.7942 183.159C81.3645 182.648 82.2851 182.208 83.0656 182.208C83.9761 182.208 84.3863 182.718 84.7265 183.489C85.2669 184.779 85.577 186.16 85.9773 187.511C86.6577 189.782 87.3681 192.014 88.0085 194.245C88.7189 196.717 89.0891 199.528 91.2204 201.219C91.6907 201.589 93.0515 202.44 93.0515 203.08C93.0515 203.891 90.0697 204.431 89.4293 204.431L89.4193 204.441ZM81.2945 189.252C80.514 189.252 79.2333 191.584 79.2333 192.334C79.2333 193.385 80.414 194.535 81.5046 194.535C82.5152 194.535 83.5058 193.925 83.5058 192.814C83.5058 191.834 82.4952 189.262 81.3045 189.262L81.2945 189.252Z" fill="var(--fill-0, #FFEDB7)"/>
<path id="Vector_8" d="M115.545 204.641C115.415 204.641 115.305 204.641 115.205 204.611C112.433 204.441 111.382 203.701 109.791 201.499C108.911 200.319 106.309 196.216 105.119 195.816C104.848 195.716 104.578 195.646 104.268 195.646C102.847 195.646 102.817 197.647 102.817 198.658V199.668C102.817 200.889 102.957 201.94 104.408 202.34C104.949 202.47 105.899 202.64 105.899 203.391C105.899 204.201 103.938 204.471 103.328 204.471C102.717 204.471 102.147 204.401 101.536 204.401C100.656 204.401 99.7454 204.471 98.8249 204.471C98.0844 204.471 96.1533 204.471 96.1533 203.421C96.1533 202.24 98.9249 203.25 99.5053 199.838C99.7454 198.488 99.8755 197.067 99.8755 195.646C99.8755 194.865 99.8455 194.085 99.8055 193.315C99.7755 192.234 99.7754 191.153 99.7754 190.063V188.842C99.7754 187.451 99.7454 185.49 98.4246 184.649C97.9844 184.379 96.6636 183.839 96.6636 183.259C96.6636 182.208 100.046 182.178 101.096 182.178H102.317C106.65 182.178 113.173 182.378 113.173 187.961C113.173 190.123 111.953 191.954 110.132 193.104C109.661 193.375 109.151 193.575 108.711 193.885C108.511 194.025 108.371 194.125 108.371 194.395C108.371 195.306 110.032 196.937 110.642 197.577C112.133 199.068 113.484 200.659 115.245 201.84C115.885 202.25 117.076 203.06 117.076 203.901C117.076 204.581 116.025 204.641 115.555 204.641H115.545ZM104.818 184.549H104.648C102.757 184.549 102.547 188.512 102.547 189.822C102.547 191.213 102.577 193.405 104.478 193.405C104.919 193.405 105.359 193.305 105.799 193.204C108.471 192.494 108.711 191.143 108.711 188.632C108.711 186.12 107.09 184.91 104.818 184.539V184.549Z" fill="var(--fill-0, #FFEDB7)"/>
<path id="Vector_9" d="M138.018 204.441C137.038 204.441 136.127 203.901 135.146 203.901C134.776 203.901 134.366 203.931 133.966 203.931C133.225 203.931 132.375 203.461 132.375 202.61C132.375 201.629 133.425 201.559 134.136 201.329C134.676 201.129 134.816 200.959 134.816 200.379C134.816 199.428 134.346 198.177 133.936 197.297C133.565 196.456 132.585 196.216 131.704 196.216C131.264 196.216 130.794 196.316 130.314 196.316C129.873 196.316 129.433 196.286 128.993 196.286C128.422 196.286 128.082 196.356 127.602 196.727C126.821 197.337 125.601 198.788 125.601 199.808C125.601 201.059 127.562 202.28 127.562 203.361C127.562 204.311 124.08 204.411 123.369 204.411C122.459 204.411 119.617 204.341 119.617 203.02C119.617 201.189 122.559 201.429 123.64 199.098C124.49 197.267 124.65 195.136 125.361 193.245C125.771 192.094 126.211 190.943 126.581 189.792C127.122 188.232 128.242 184.139 129.393 183.159C129.963 182.648 130.884 182.208 131.664 182.208C132.575 182.208 132.985 182.718 133.325 183.489C133.866 184.779 134.176 186.16 134.576 187.511C135.256 189.782 135.967 192.014 136.607 194.245C137.318 196.717 137.688 199.528 139.819 201.219C140.289 201.589 141.65 202.44 141.65 203.08C141.65 203.891 138.668 204.431 138.028 204.431L138.018 204.441ZM129.893 189.252C129.113 189.252 127.832 191.584 127.832 192.334C127.832 193.385 129.013 194.535 130.103 194.535C131.114 194.535 132.105 193.925 132.105 192.814C132.105 191.834 131.094 189.262 129.903 189.262L129.893 189.252Z" fill="var(--fill-0, #FFEDB7)"/>
<path id="Vector_10" d="M170.667 184.309H170.497C169.347 184.309 169.317 190.463 169.317 192.324V194.085C169.317 196.727 169.387 201.259 170.367 201.97C170.878 202.34 171.518 202.61 171.518 203.32C171.518 204.501 168.266 204.201 167.496 204.331C166.915 204.431 166.345 204.601 165.775 204.601C164.934 204.601 164.324 204.231 163.773 203.621C163.673 203.491 163.533 203.35 163.533 203.15C163.533 202.88 164.344 202.47 164.544 202.31C164.744 202.17 164.914 201.97 165.084 201.77C165.865 200.859 165.995 199.608 166.035 198.458C166.105 196.937 166.175 195.416 166.275 193.885C166.375 192.604 166.515 191.313 166.515 190.033C166.515 189.662 166.485 189.322 166.345 188.982C166.245 188.682 165.805 187.761 165.434 187.761C164.964 187.761 164.554 188.912 164.384 189.282C163.303 192.194 162.523 195.236 161.202 198.047C160.862 198.758 160.591 199.498 160.391 200.279C160.051 201.7 160.021 204.141 158.02 204.141H157.89C155.959 204.111 155.759 203.02 155.488 201.369C155.358 200.689 155.288 199.979 155.118 199.308C154.438 196.496 153.357 193.795 152.347 191.123C152.177 190.683 151.536 188.622 151.026 188.622C150.586 188.622 150.486 190.113 150.486 190.413C150.385 191.634 150.245 192.814 150.245 194.035C150.245 195.486 150.445 196.947 150.686 198.368C150.886 199.758 150.956 201.179 151.696 202.39C151.896 202.73 152.167 203.07 152.167 203.471C152.167 204.481 149.895 204.521 148.985 204.521C148.174 204.521 144.482 204.351 144.482 203.23C144.482 201.91 147.424 202.28 147.764 198.257C147.834 197.617 147.834 196.967 147.834 196.296V194.295C147.834 192.804 147.904 191.283 148.034 189.792C148.134 188.912 148.274 188.031 148.274 187.121C148.274 185.94 148.004 185.63 146.953 185.16C146.243 184.82 145.292 184.309 145.292 183.399C145.292 182.618 146.143 182.448 146.743 182.348C147.754 182.218 148.774 182.108 149.785 182.108C150.796 182.108 151.846 182.308 152.627 182.988C153.437 183.669 153.847 185.63 154.148 186.681C154.388 187.531 154.658 188.342 154.928 189.182C155.368 190.433 157.57 196.967 158.82 196.967C159.501 196.967 160.071 194.865 160.241 194.325C160.982 192.264 161.562 190.133 162.272 188.071C163.153 185.53 164.434 182.188 167.616 182.188C168.426 182.188 169.207 182.388 170.017 182.388C170.657 182.388 171.268 182.248 171.908 182.248C172.489 182.248 172.819 182.788 172.819 183.299C172.819 184.279 171.428 184.309 170.657 184.309H170.667Z" fill="var(--fill-0, #FFEDB7)"/>
<path id="Vector_11" d="M192.16 204.001C191.04 204.241 189.859 204.241 188.638 204.241C186.877 204.241 185.116 204.211 183.365 204.211C182.685 204.211 181.974 204.211 181.304 204.311C180.493 204.411 179.683 204.551 178.832 204.551C177.652 204.551 176.461 204.351 175.851 203.16C175.78 203.06 175.75 202.96 175.75 202.82C175.75 202.48 177.071 202.18 177.371 202.04C177.712 201.84 178.012 201.569 178.282 201.259C179.503 199.738 179.573 196.857 179.573 194.966V193.885C179.573 191.343 179.543 186.14 179.233 185.53C179.062 185.19 178.962 185.09 178.622 184.92C178.012 184.619 176.251 184.179 176.251 183.329C176.251 183.229 176.281 183.089 176.351 182.988C176.791 182.178 180.543 182.178 181.464 182.178C182.715 182.178 183.935 182.248 185.186 182.348C186.097 182.448 187.017 182.488 187.928 182.488C190.799 182.488 193.341 182.518 193.341 186.14C193.341 186.751 193.171 188.001 192.36 188.001C192.06 188.001 191.75 187.801 191.55 187.591C189.619 185.9 189.959 184.479 186.917 184.209C186.577 184.179 186.237 184.179 185.866 184.179C184.035 184.179 183.295 184.549 183.125 186.481C183.055 187.191 183.025 187.931 183.025 188.642C183.025 189.933 183.125 192.634 184.916 192.634C185.016 192.634 185.086 192.634 185.186 192.604C186.577 192.404 187.487 191.694 187.898 190.303C187.998 190.003 188.038 189.662 188.168 189.322C188.238 189.122 188.368 188.852 188.638 188.852C189.278 188.852 189.419 190.413 189.489 190.883C189.659 192.434 190.059 193.965 190.059 195.516C190.059 196.056 189.859 197.517 189.108 197.517C188.468 197.517 187.587 195.146 187.007 194.675C186.537 194.265 185.826 194.135 185.176 194.135C183.995 194.135 183.315 194.605 183.115 195.796C182.945 196.947 182.745 198.167 182.745 199.318C182.745 200.909 183.255 201.86 184.876 202.26C186.057 202.56 187.307 202.73 188.568 202.73C190.089 202.73 191.31 202.46 191.85 200.839C192.12 200.029 192.731 197.967 193.781 197.967C194.362 197.967 194.362 200.299 194.362 200.709C194.362 202.37 193.921 203.651 192.16 204.021V204.001Z" fill="var(--fill-0, #FFEDB7)"/>
<path id="Vector_12" d="M215.244 204.241C214.233 204.241 213.253 204.111 212.262 204.111C210.641 204.111 209.05 204.211 207.459 204.351C205.298 204.521 203.127 204.521 200.965 204.521H200.555C199.985 204.521 197.814 204.521 197.814 203.911C197.814 203.641 197.984 203.401 198.114 203.2C199.024 201.98 200.955 203.741 201.296 200.459C201.466 198.598 201.496 196.707 201.496 194.805C201.496 193.144 201.426 191.523 201.356 189.863C201.326 188.712 201.326 185.26 200.305 184.619C199.565 184.179 198.514 184.249 198.514 183.058C198.514 182.378 198.754 182.048 199.465 182.048C199.875 182.048 200.275 182.148 200.685 182.148C201.366 182.148 202.006 181.908 202.686 181.908C203.597 181.908 204.518 182.248 205.428 182.248C205.768 182.248 206.108 182.178 206.409 182.178C206.989 182.178 208.2 182.278 208.2 183.058C208.2 183.969 205.488 184.349 205.158 187.151C204.918 188.942 204.918 190.773 204.918 192.564V194.015C204.918 195.336 204.948 196.657 205.048 197.937C205.348 201.66 205.318 202.37 209.34 202.37C211.232 202.37 213.133 202.2 214.043 200.269C214.313 199.658 214.784 197.837 215.594 197.837C216.405 197.837 216.645 200.879 216.645 201.489C216.645 202.44 216.475 204.231 215.224 204.231L215.244 204.241Z" fill="var(--fill-0, #FFEDB7)"/>
<path id="Vector_13" d="M66.7459 157.373C64.5446 157.373 65.5252 151.79 58.5911 151.79C54.0884 151.79 51.8871 156.623 51.8871 160.515C51.8871 162.917 52.7976 165.188 54.4286 166.939C55.7194 168.29 57.4104 169.34 59.3015 169.34C61.4628 169.34 63.9342 167.779 65.4251 166.329C65.5552 166.188 65.6953 166.028 65.9354 166.028C66.4057 166.028 66.5458 166.739 66.5458 167.109C66.5458 167.579 66.4057 167.849 66.1355 168.26C64.6446 170.591 61.873 171.682 59.2014 171.682C58.8312 171.682 58.491 171.682 58.1508 171.652C50.4062 170.871 48.0648 166.809 47.5245 159.505V159.064C47.5245 154.802 50.1661 151.32 54.2285 150.069C55.9495 149.529 57.7806 149.258 59.5716 149.258C61.0925 149.258 62.3133 149.499 63.6941 150.039C66.3657 151.09 66.8059 150.549 67.1461 153.731C67.2462 154.582 67.3162 155.422 67.3162 156.303C67.3162 156.643 67.3162 157.383 66.7359 157.383L66.7459 157.373Z" fill="var(--fill-0, #FFEDB7)"/>
<path id="Vector_14" d="M95.0427 150.709C94.6724 151.96 94.5724 151.66 93.5217 152.1C92.4011 152.57 92.271 153.761 92.271 154.842C92.271 155.352 92.341 155.892 92.341 156.433C92.341 159.645 92.311 166.309 90.48 168.92C89.0891 170.921 85.9773 171.962 83.6159 171.962C82.095 171.962 80.2639 171.552 78.9131 170.841C74.9207 168.68 74.7206 164.788 74.7206 160.725C74.7206 158.354 74.9608 155.952 74.9608 153.551C74.9608 151.15 72.019 152.33 72.019 150.709C72.019 149.489 73.68 149.359 74.5905 149.359C75.7412 149.359 76.8619 149.629 77.9725 149.629C78.683 149.629 79.3934 149.529 80.1038 149.529C80.8142 149.529 82.7454 149.899 82.7454 150.879C82.7454 151.12 82.6053 151.29 82.4752 151.42C81.1844 152.64 79.1632 150.839 78.753 154.091C78.6229 155.212 78.6229 156.323 78.6229 157.473V158.554C78.6229 161.095 78.693 165.188 79.9437 166.609C80.9243 167.759 82.5853 168.81 84.1362 168.81C84.9467 168.81 85.7572 168.57 86.4376 168.17C89.2792 166.479 89.4794 162.927 89.6194 159.985C89.6895 158.294 89.7495 156.603 89.7495 154.842C89.7495 154.161 89.7495 152.64 89.1792 152.3C88.3287 151.76 86.2975 151.89 86.2975 150.469C86.2975 149.519 88.4287 149.489 89.2392 149.489H89.4093C90.2598 149.489 93.7719 149.589 94.3823 149.859C94.6824 149.999 95.0627 150.199 95.0627 150.569V150.709H95.0427Z" fill="var(--fill-0, #FFEDB7)"/>
<path id="Vector_15" d="M107.16 171.852C103.978 171.852 99.8855 170.361 99.8855 166.609C99.8855 165.898 100.156 163.457 101.106 163.457C101.717 163.457 102.227 164.337 102.497 164.808C103.548 166.669 105.169 169.34 107.64 169.34C109.361 169.34 110.652 167.719 110.652 166.058C110.652 163.787 106.76 162.236 105.039 161.426C102.567 160.275 100.306 158.684 100.306 155.672C100.306 151.48 103.518 149.108 107.51 149.108C109.031 149.108 112.243 149.719 112.683 151.44C112.853 152.12 112.853 152.861 112.853 153.541C112.853 154.151 112.823 155.872 111.943 155.872C110.622 155.872 108.731 151.75 106.77 151.75C106.529 151.75 106.299 151.82 106.059 151.85C105.049 152.12 103.758 152.56 103.758 153.851C103.758 154.091 103.758 154.291 103.828 154.532C104.368 156.663 105.419 157.273 107.38 158.084C108.26 158.454 109.171 158.724 110.052 159.094C112.523 160.145 113.804 161.936 113.804 164.678C113.804 168.37 111.032 171.852 107.17 171.852H107.16Z" fill="var(--fill-0, #FFEDB7)"/>
<path id="Vector_16" d="M140.89 156.763C140.279 156.763 138.959 154.972 138.689 154.432C138.518 154.161 138.418 153.891 138.348 153.581C138.048 152.6 137.838 152.13 136.687 152.13C136.487 152.13 136.277 152.13 136.077 152.16C133.946 152.4 132.285 152.67 131.814 155.072C131.614 156.123 131.614 157.203 131.614 158.254C131.614 160.555 131.684 162.857 131.814 165.158C131.884 166.579 132.255 168.37 133.505 169.22C134.216 169.731 134.896 170.031 134.896 171.011C134.896 171.652 134.386 171.652 133.916 171.652C132.695 171.652 131.514 171.412 130.334 171.412C129.013 171.412 127.692 171.782 126.371 171.782C125.861 171.782 124.85 171.752 124.85 171.041C124.85 168.81 128.372 169.961 128.372 164.678C128.372 161.936 128.542 159.194 128.542 156.393C128.542 155.612 128.542 154.361 128.242 153.681C127.632 152.46 125.971 152.16 124.76 152.16C124.35 152.16 123.95 152.19 123.58 152.26C122.159 152.56 121.819 153.171 121.208 154.391C120.908 155.002 120.198 157.403 119.377 157.403C118.637 157.403 118.527 154.492 118.527 153.921C118.527 153.241 118.597 152.57 118.697 151.92C118.937 150.639 118.897 149.449 120.558 149.449C122.219 149.449 123.77 149.889 125.391 149.889C126.741 149.889 128.102 149.619 129.483 149.619C130.734 149.619 131.985 149.989 133.235 149.989C134.556 149.989 135.877 149.819 137.198 149.689C138.048 149.559 138.889 149.449 139.769 149.449C141.46 149.449 141.6 150.529 141.6 151.75V152.6C141.6 153.141 141.63 153.681 141.63 154.191C141.63 154.702 141.56 156.763 140.89 156.763Z" fill="var(--fill-0, #FFEDB7)"/>
<path id="Vector_17" d="M162.313 171.522C161.332 171.522 160.421 170.981 159.431 170.981C159.061 170.981 158.65 171.011 158.25 171.011C157.51 171.011 156.659 170.541 156.659 169.691C156.659 168.71 157.71 168.64 158.42 168.4C158.961 168.2 159.101 168.03 159.101 167.449C159.101 166.499 158.63 165.248 158.22 164.367C157.85 163.527 156.869 163.287 155.989 163.287C155.549 163.287 155.078 163.387 154.598 163.387C154.158 163.387 153.717 163.357 153.277 163.357C152.697 163.357 152.367 163.427 151.886 163.797C151.106 164.407 149.885 165.858 149.885 166.879C149.885 168.13 151.846 169.35 151.846 170.431C151.846 171.382 148.364 171.482 147.654 171.482C146.743 171.482 143.902 171.412 143.902 170.091C143.902 168.26 146.843 168.5 147.924 166.168C148.774 164.337 148.935 162.206 149.645 160.315C150.055 159.164 150.485 158.014 150.866 156.863C151.406 155.302 152.527 151.21 153.677 150.229C154.258 149.719 155.168 149.278 155.949 149.278C156.859 149.278 157.27 149.789 157.61 150.559C158.15 151.85 158.45 153.231 158.86 154.582C159.541 156.853 160.251 159.084 160.892 161.316C161.602 163.787 161.972 166.599 164.104 168.29C164.574 168.66 165.935 169.51 165.935 170.151C165.935 170.961 162.953 171.502 162.313 171.502V171.522ZM154.188 156.333C153.407 156.333 152.126 158.664 152.126 159.414C152.126 160.465 153.307 161.616 154.398 161.616C155.408 161.616 156.399 161.005 156.399 159.895C156.399 158.914 155.388 156.343 154.198 156.343L154.188 156.333Z" fill="var(--fill-0, #FFEDB7)"/>
<path id="Vector_18" d="M189.789 171.722C189.649 171.722 189.549 171.722 189.449 171.692C186.677 171.522 185.626 170.781 184.035 168.58C183.155 167.399 180.553 163.297 179.363 162.897C179.092 162.796 178.822 162.726 178.522 162.726C177.101 162.726 177.071 164.728 177.071 165.738V166.749C177.071 167.97 177.201 169.02 178.662 169.42C179.203 169.56 180.153 169.721 180.153 170.471C180.153 171.281 178.192 171.552 177.582 171.552C176.971 171.552 176.401 171.482 175.791 171.482C174.91 171.482 173.999 171.552 173.079 171.552C172.338 171.552 170.407 171.552 170.407 170.501C170.407 169.32 173.179 170.331 173.759 166.919C173.999 165.568 174.13 164.147 174.13 162.726C174.13 161.946 174.1 161.165 174.059 160.395C174.029 159.314 174.029 158.234 174.029 157.143V155.922C174.029 154.532 173.999 152.57 172.679 151.73C172.238 151.46 170.918 150.919 170.918 150.339C170.918 149.288 174.3 149.258 175.35 149.258H176.571C180.904 149.258 187.427 149.459 187.427 155.042C187.427 157.203 186.207 159.034 184.386 160.185C183.915 160.455 183.405 160.655 182.965 160.965C182.765 161.105 182.625 161.206 182.625 161.476C182.625 162.386 184.286 164.017 184.896 164.658C186.387 166.148 187.738 167.739 189.499 168.92C190.139 169.33 191.33 170.141 191.33 170.981C191.33 171.662 190.279 171.722 189.809 171.722H189.789ZM179.062 151.63H178.892C177.001 151.63 176.791 155.592 176.791 156.903C176.791 158.294 176.821 160.485 178.722 160.485C179.163 160.485 179.603 160.385 180.043 160.285C182.715 159.575 182.955 158.224 182.955 155.712C182.955 153.201 181.334 151.99 179.062 151.62V151.63Z" fill="var(--fill-0, #FFEDB7)"/>
<path id="Vector_19" d="M211.352 170.641C210.441 171.251 209.46 171.352 208.37 171.352C207.489 171.352 206.579 171.281 205.698 171.281C203.637 171.281 201.606 171.722 199.545 171.722C198.364 171.722 196.503 171.652 195.482 170.981C195.352 170.851 195.142 170.711 195.142 170.511C195.142 169.941 197.683 169.19 198.184 168.89C199.505 168.01 199.605 164.017 199.605 161.716V160.705C199.605 159.655 199.635 158.574 199.635 157.493C199.635 155.902 199.635 152.931 198.044 152.01C197.533 151.74 195.542 151.16 195.542 150.489C195.542 149.479 198.184 149.308 198.894 149.308C199.605 149.308 200.115 149.409 200.755 149.649C201.126 149.779 201.266 149.849 201.666 149.849C202.236 149.849 202.847 149.709 203.427 149.649C204.277 149.549 205.088 149.479 205.928 149.479C210.871 149.479 215.974 152.69 216.755 157.834C216.895 158.784 216.925 159.765 216.925 160.705C216.925 164.898 214.764 168.35 211.342 170.651L211.352 170.641ZM205.028 152.07C203.137 152.07 202.927 153.021 202.927 154.672V157.073C202.927 159.444 202.556 161.776 202.556 164.107C202.556 165.968 202.656 169.22 205.228 169.22C205.738 169.22 206.239 169.12 206.749 168.98C207.829 168.74 208.95 168.44 209.891 167.859C212.432 166.269 212.632 162.957 212.632 160.285C212.632 155.552 209.991 152.06 205.018 152.06L205.028 152.07Z" fill="var(--fill-0, #FFEDB7)"/>
<path id="Vector_20" d="M82.4652 0.110065H86.5476L105.079 19.8818V0.110065H108.931V31.6688H106.449L86.3775 9.83583V31.2085H82.4552V0.110065H82.4652Z" fill="var(--fill-0, #FFCF82)"/>
<path id="Vector_21" d="M126.341 31.7488C124.74 31.7488 123.229 31.4386 121.819 30.8183C120.408 30.1979 119.177 29.3674 118.126 28.3168C117.076 27.2662 116.245 26.0554 115.635 24.6746C115.035 23.2938 114.724 21.8229 114.724 20.282C114.724 18.4309 115.004 16.7199 115.565 15.129C116.125 13.548 116.916 12.1772 117.936 11.0165C118.957 9.85584 120.198 8.9453 121.638 8.29492C123.079 7.64453 124.68 7.32434 126.441 7.32434C128.012 7.32434 129.453 7.58449 130.754 8.1048C132.055 8.62511 133.165 9.33553 134.106 10.2361C135.036 11.1366 135.757 12.1972 136.277 13.428C136.787 14.6487 137.048 15.9595 137.048 17.3503H120.788C120.848 18.6511 121.058 19.8918 121.408 21.0625C121.758 22.2432 122.229 23.2738 122.819 24.1743C123.409 25.0649 124.1 25.7753 124.91 26.3056C125.721 26.8359 126.601 27.0961 127.562 27.0961C128.402 27.0961 129.233 26.966 130.043 26.6958C130.854 26.4257 131.594 26.0654 132.265 25.6052C132.935 25.1449 133.525 24.6146 134.016 24.0042C134.516 23.3939 134.866 22.7335 135.086 22.0331L137.888 22.4933C137.518 23.7641 136.947 24.9548 136.167 26.0855C135.387 27.2061 134.476 28.1867 133.435 29.0372C132.395 29.8777 131.264 30.5481 130.043 31.0284C128.823 31.5187 127.592 31.7588 126.351 31.7588L126.341 31.7488ZM129.803 14.9088C129.743 14.2184 129.583 13.5881 129.323 13.0177C129.063 12.4474 128.723 11.9471 128.312 11.5368C127.902 11.1266 127.422 10.8064 126.882 10.5863C126.341 10.3661 125.751 10.2561 125.13 10.2561C124.63 10.2561 124.13 10.3661 123.65 10.5863C123.169 10.8064 122.739 11.1266 122.349 11.5268C121.959 11.9271 121.638 12.4174 121.378 12.9977C121.108 13.568 120.938 14.2084 120.858 14.9088H129.803Z" fill="var(--fill-0, #FFCF82)"/>
<path id="Vector_22" d="M146.413 7.73458L153.087 22.4133L159.531 7.57449H160.101L166.775 22.2032L173.149 7.73458H176.931L166.545 31.7488H164.094L158.54 19.0213L153.077 31.7488H150.415L139.769 7.73458H146.393H146.413Z" fill="var(--fill-0, #FFCF82)"/>
<path id="Vector_23" d="M182.655 22.9836C182.424 20.9924 182.204 19.3014 181.994 17.9006C181.784 16.4998 181.574 15.2891 181.384 14.2685C181.194 13.2479 181.014 12.3673 180.843 11.6269C180.673 10.8965 180.533 10.206 180.423 9.55566C180.313 8.90528 180.213 8.24489 180.153 7.57449C180.093 6.90409 180.053 6.11362 180.053 5.21309C180.053 4.40261 180.163 3.67218 180.373 3.0318C180.583 2.39142 180.874 1.84109 181.234 1.39082C181.594 0.940557 181.994 0.600356 182.444 0.360213C182.895 0.120071 183.355 0 183.805 0C184.256 0 184.746 0.120071 185.196 0.360213C185.646 0.600356 186.047 0.940557 186.397 1.39082C186.747 1.84109 187.027 2.39142 187.247 3.0318C187.457 3.67218 187.567 4.40261 187.567 5.21309C187.567 6.11362 187.537 6.90409 187.467 7.57449C187.397 8.24489 187.307 8.90528 187.187 9.55566C187.077 10.206 186.937 10.8965 186.777 11.6269C186.617 12.3573 186.437 13.2378 186.247 14.2685C186.057 15.2891 185.856 16.4998 185.636 17.9006C185.416 19.3014 185.206 20.9924 184.996 22.9836H182.655ZM180.663 28.5569C180.663 28.1267 180.743 27.7164 180.904 27.3262C181.064 26.936 181.294 26.5958 181.584 26.3156C181.874 26.0354 182.204 25.8053 182.585 25.6352C182.955 25.4651 183.365 25.385 183.815 25.385C184.266 25.385 184.676 25.4651 185.066 25.6352C185.456 25.8053 185.796 26.0254 186.077 26.3156C186.357 26.5958 186.587 26.936 186.757 27.3262C186.927 27.7164 187.007 28.1267 187.007 28.5569C187.007 28.9872 186.927 29.4174 186.757 29.7977C186.587 30.1779 186.367 30.5081 186.077 30.7882C185.796 31.0584 185.456 31.2785 185.066 31.4386C184.676 31.5987 184.256 31.6788 183.815 31.6788C183.375 31.6788 182.965 31.5987 182.585 31.4386C182.204 31.2785 181.874 31.0584 181.584 30.7882C181.294 30.5181 181.064 30.1879 180.904 29.7977C180.743 29.4174 180.663 29.0072 180.663 28.5569Z" fill="var(--fill-0, #FFCF82)"/>
</g>
</svg>
