<svg preserveAspectRatio="none" width="100%" height="100%" overflow="visible" style="display: block;" viewBox="0 0 24 24" fill="none" xmlns="http://www.w3.org/2000/svg">
<g id="Item &#226;&#134;&#146; Link &#226;&#134;&#146; SVG">
<path id="Vector" d="M12 4.622C14.403 4.622 14.688 4.631 15.637 4.674C16.514 4.714 16.991 4.861 17.308 4.984C17.728 5.147 18.028 5.342 18.343 5.657C18.658 5.972 18.853 6.272 19.016 6.692C19.139 7.009 19.286 7.486 19.326 8.363C19.369 9.312 19.378 9.597 19.378 12C19.378 14.403 19.369 14.688 19.326 15.637C19.286 16.514 19.139 16.991 19.016 17.308C18.853 17.728 18.658 18.028 18.343 18.343C18.028 18.658 17.728 18.853 17.308 19.016C16.991 19.139 16.514 19.286 15.637 19.326C14.688 19.369 14.404 19.378 12 19.378C9.596 19.378 9.312 19.369 8.363 19.326C7.486 19.286 7.009 19.139 6.692 19.016C6.272 18.853 5.972 18.658 5.657 18.343C5.342 18.028 5.147 17.728 4.984 17.308C4.861 16.991 4.714 16.514 4.674 15.637C4.631 14.688 4.622 14.403 4.622 12C4.622 9.597 4.631 9.312 4.674 8.363C4.714 7.486 4.861 7.009 4.984 6.692C5.147 6.272 5.342 5.972 5.657 5.657C5.972 5.342 6.272 5.147 6.692 4.984C7.009 4.861 7.486 4.714 8.363 4.674C9.312 4.631 9.597 4.622 12 4.622ZM12 3C9.556 3 9.249 3.01 8.289 3.054C7.331 3.098 6.677 3.25 6.105 3.472C5.513 3.702 5.011 4.01 4.511 4.511C4.011 5.011 3.703 5.513 3.473 6.105C3.25 6.677 3.098 7.331 3.054 8.289C3.01 9.249 3 9.556 3 12C3 14.444 3.01 14.751 3.054 15.711C3.098 16.669 3.25 17.323 3.472 17.896C3.702 18.488 4.01 18.99 4.51 19.49C5.01 19.99 5.512 20.298 6.104 20.528C6.676 20.75 7.331 20.903 8.289 20.946C9.249 20.99 9.556 21 12 21C14.444 21 14.751 20.99 15.711 20.946C16.669 20.902 17.323 20.75 17.896 20.528C18.488 20.298 18.99 19.99 19.49 19.49C19.99 18.99 20.298 18.488 20.528 17.896C20.75 17.324 20.903 16.669 20.946 15.711C20.99 14.751 21 14.444 21 12C21 9.556 20.99 9.249 20.946 8.289C20.902 7.331 20.75 6.677 20.528 6.104C20.298 5.512 19.99 5.01 19.49 4.51C18.99 4.01 18.488 3.702 17.896 3.472C17.324 3.25 16.669 3.097 15.711 3.054C14.751 3.01 14.444 3 12 3ZM12 7.378C9.448 7.378 7.378 9.447 7.378 12C7.378 14.553 9.448 16.622 12 16.622C14.552 16.622 16.622 14.553 16.622 12C16.622 9.447 14.552 7.378 12 7.378ZM12 15C10.343 15 9 13.657 9 12C9 10.343 10.343 9 12 9C13.657 9 15 10.343 15 12C15 13.657 13.657 15 12 15ZM16.804 6.116C16.208 6.116 15.724 6.6 15.724 7.196C15.724 7.792 16.208 8.276 16.804 8.276C17.4 8.276 17.884 7.792 17.884 7.196C17.884 6.6 17.401 6.116 16.804 6.116Z" fill="var(--fill-0, #563E2B)"/>
</g>
</svg>
